<svg width="85" height="87" viewBox="0 0 85 87" fill="none" xmlns="http://www.w3.org/2000/svg">
<path d="M42.5 0.5C65.6851 0.5 84.5 19.7407 84.5 43.5C84.5 67.2593 65.6851 86.5 42.5 86.5C19.3149 86.5 0.5 67.2593 0.5 43.5C0.5 19.7407 19.3149 0.5 42.5 0.5Z" fill="white" stroke="black"/>
<path d="M15.925 28.0625C15.925 20.296 22.221 14 29.9875 14H55.0981C62.8646 14 69.1606 20.296 69.1606 28.0625C69.1606 35.829 62.8646 42.125 55.0981 42.125H29.9875C22.221 42.125 15.925 35.829 15.925 28.0625Z" fill="#191313"/>
<path d="M15.925 59.9375C15.925 52.171 22.221 45.875 29.9875 45.875H55.0981C62.8646 45.875 69.1606 52.171 69.1606 59.9375C69.1606 67.704 62.8646 74 55.0981 74H29.9875C22.221 74 15.925 67.704 15.925 59.9375Z" fill="#191313"/>
<path d="M25.8701 59.5707C25.8701 56.1489 28.644 53.375 32.0658 53.375H65.8044C69.2261 53.375 72 56.1489 72 59.5707C72 62.9924 69.2261 65.7663 65.8044 65.7663H32.0658C28.644 65.7663 25.8701 62.9924 25.8701 59.5707Z" fill="white"/>
<path d="M13 27.6957C13 24.2739 15.7739 21.5 19.1956 21.5H52.9342C56.356 21.5 59.1299 24.2739 59.1299 27.6957C59.1299 31.1174 56.356 33.8913 52.9342 33.8913H19.1956C15.7739 33.8913 13 31.1174 13 27.6957Z" fill="white"/>
</svg>
